<svg width="24" height="19" viewBox="0 0 24 19" fill="none" xmlns="http://www.w3.org/2000/svg">
<style>
    /* Default color for Light Mode */
    .dynamic-path {
      fill: #000000; 
    }
    /* Automatic switch for Dark Mode */
    @media (prefers-color-scheme: dark) {
      .dynamic-path {
        fill: #ffffff; 
      }
    }
</style>
<g clip-path="url(#clip0_1_551)">
<path d="M3.34075 0.030728C3.00474 0.136153 2.70735 0.397763 2.56059 0.717943L2.47176 0.913175L2.46403 4.32973C2.45631 7.5081 2.46017 7.73847 2.51811 7.64866C2.55286 7.594 2.69963 7.43391 2.84639 7.28944L3.10902 7.02392V4.14621C3.11288 2.54531 3.12833 1.19431 3.14764 1.10841C3.17081 1.00689 3.23261 0.905365 3.32144 0.823368L3.46048 0.694515L5.78552 0.710134C7.73206 0.721848 8.17235 0.737466 8.49677 0.792131C9.62839 0.983458 10.3892 1.33487 10.9917 1.944C11.2582 2.21342 11.3548 2.34227 11.4745 2.59607L11.6251 2.91235H11.8762C12.0152 2.91235 12.1813 2.92406 12.2431 2.93968C12.3551 2.96311 12.3628 2.9592 12.4864 2.67416C12.9074 1.72534 13.954 1.07326 15.5066 0.792131C15.8195 0.733562 16.2211 0.721848 18.1909 0.710134C20.4734 0.694515 20.5082 0.69842 20.6356 0.776513C20.8867 0.936602 20.8789 0.737466 20.8674 4.92714L20.8558 8.72244L20.7515 8.94891C20.6433 9.17928 20.2996 9.58146 20.176 9.6205C20.1335 9.63612 20.1026 9.65955 20.1026 9.67907C20.1026 9.69859 20.1953 9.68688 20.3073 9.65174C20.8133 9.49946 21.1609 9.21442 21.381 8.76148L21.5123 8.48816V4.66162V0.835082L21.4235 0.671087C21.2883 0.413382 21.1184 0.241578 20.8828 0.124439L20.6627 0.0151095L18.7509 0.00339557C16.7232 -0.0122229 15.9238 0.0229187 15.1706 0.151772C13.9077 0.370431 12.8456 0.963935 12.2276 1.79562L11.9959 2.10018L11.826 1.8581C11.069 0.792131 9.7095 0.171295 7.8402 0.0346326C7.21452 -0.00831832 3.48365 -0.0122229 3.34075 0.030728Z" class="dynamic-path"/>
<path d="M1.96199 1.19027C1.73026 1.27617 1.47149 1.52607 1.34404 1.78378L1.2359 2.00634L1.22431 8.17566C1.21659 12.3263 1.22818 14.4309 1.25521 14.6105C1.32859 15.0986 1.53329 15.3758 1.91564 15.5203C2.06627 15.5749 2.46794 15.5866 5.19464 15.6179C6.90559 15.6374 8.3655 15.6608 8.43888 15.6725C9.09931 15.7819 9.19587 15.8209 9.09545 15.9459C9.05297 15.9966 8.6204 16.0044 5.62334 16.0044C3.73087 16.0044 2.05855 15.9888 1.88475 15.9654C1.71095 15.9459 1.47922 15.8912 1.37108 15.8444C1.14321 15.7428 0.834232 15.4266 0.753127 15.2001C0.70678 15.0712 0.695194 14.1732 0.683607 9.226L0.672021 3.40029L0.772437 3.28315C0.826508 3.21677 0.907614 3.1504 0.946236 3.13868C1.01576 3.11525 1.02348 3.07621 1.02348 2.76384V2.41633L0.919201 2.43975C0.571604 2.51785 0.254904 2.77555 0.0926925 3.10354L0 3.29487V9.01515C0 13.3727 0.0115866 14.8096 0.0502084 15.0478C0.162212 15.7858 0.656572 16.3363 1.4097 16.5706C1.70322 16.6604 3.3601 16.7034 6.62751 16.7073H9.19973L9.24608 16.5003C9.30787 16.227 9.45463 15.9107 9.64002 15.6686C9.72113 15.5593 9.79064 15.4617 9.79064 15.4461C9.79064 15.4031 9.36194 15.2626 8.99117 15.1884C8.22646 15.0322 7.93679 15.0166 5.01312 14.9931L2.14351 14.9697L2.0431 14.8643C1.95427 14.7745 1.93496 14.7159 1.90406 14.3762C1.88089 14.1536 1.87702 12.9705 1.88861 11.5336C1.9002 10.1787 1.91178 7.50406 1.91178 5.58298V2.08834L2.08558 1.92434L2.25938 1.76425V1.44407C2.25938 1.08875 2.25938 1.08485 1.96199 1.19027Z" class="dynamic-path"/>
<path d="M21.7634 1.46754C21.7634 1.80724 21.7634 1.81114 21.8793 1.87752C22.1265 2.02199 22.1149 1.6042 22.1033 8.46073C22.0917 14.3216 22.0878 14.7081 22.026 14.8058C21.9836 14.8643 21.8947 14.9229 21.8136 14.9502C21.7209 14.9737 20.6395 14.9932 18.8861 15.0049C16.646 15.0166 16.0203 15.0283 15.6612 15.0791C14.9775 15.1728 14.5179 15.286 14.2708 15.4188C14.1935 15.4617 14.1935 15.4656 14.3248 15.6179C14.5102 15.8366 14.6879 16.188 14.7458 16.4574L14.7999 16.6878L17.152 16.6995C20.0525 16.7112 22.2732 16.6605 22.5706 16.5746C23.2697 16.3754 23.7756 15.8639 23.934 15.2001C23.9649 15.0596 23.9803 13.4508 23.9919 9.21823C24.0073 2.72873 24.0267 3.17386 23.7293 2.83025C23.5709 2.65064 23.3199 2.49445 23.1075 2.43979L22.9993 2.41636V2.76387C22.9993 3.11139 22.9993 3.11529 23.1152 3.18167C23.3624 3.33004 23.3469 2.97863 23.3469 8.78872C23.343 11.6938 23.3276 14.3099 23.3121 14.6027C23.2812 15.083 23.2658 15.1572 23.1692 15.3407C23.0341 15.5906 22.7599 15.8132 22.4586 15.9147C22.2578 15.981 22.0376 15.985 18.5771 15.985C14.9428 15.985 14.908 15.985 14.908 15.9069C14.908 15.6804 15.2672 15.6531 18.8088 15.614C20.6395 15.5945 21.9488 15.5672 22.0183 15.5437C22.3389 15.4422 22.5822 15.2157 22.6787 14.9346C22.7444 14.7472 22.7483 14.3567 22.7483 8.33188V1.92828L22.6633 1.76819C22.5243 1.50658 22.3929 1.37382 22.1419 1.24888C21.7711 1.06145 21.7634 1.06536 21.7634 1.46754Z" class="dynamic-path"/>
<path d="M5.31818 1.64327C4.84313 1.69794 4.29083 2.06107 4.04752 2.48667C3.72309 3.04113 3.72309 3.82206 4.04752 4.37652C4.27152 4.76698 4.77361 5.10668 5.24093 5.18868C5.65805 5.26287 6.13696 5.13401 6.56566 4.83726C6.78581 4.68498 7.18747 4.32185 7.35741 4.12271L7.48486 3.97434L7.26086 3.74397L7.03685 3.51359L6.65449 3.87672C6.43821 4.08367 6.17172 4.29842 6.03654 4.36871C5.56149 4.62641 5.09803 4.55613 4.75816 4.17347C4.48008 3.8611 4.40284 3.49016 4.52257 3.08018C4.60753 2.78733 4.94354 2.44763 5.23321 2.36173C5.49197 2.28363 5.63101 2.28363 5.87819 2.35782C6.24124 2.46715 6.53477 2.71314 7.63163 3.82987C8.26889 4.47413 8.73621 4.91926 8.79028 4.93097C8.84049 4.94269 8.97181 4.95831 9.07995 4.96611C9.27692 4.98173 9.28078 4.97783 9.35802 4.84117L9.43913 4.7006L8.48517 3.72835C7.95991 3.19341 7.37672 2.60772 7.18747 2.4281C6.52704 1.79946 5.97475 1.56909 5.31818 1.64327Z" class="dynamic-path"/>
<path d="M18.2141 1.64331C17.7777 1.69407 17.0864 2.10016 16.6499 2.56871C16.5225 2.70537 16.5109 2.68195 16.8353 3.02946L16.9859 3.19345L17.2872 2.90841C17.4571 2.74442 17.7043 2.5609 17.8665 2.4711C18.1253 2.33443 18.1794 2.31882 18.442 2.31882C18.693 2.31882 18.7587 2.33443 18.9402 2.43595C19.4384 2.71318 19.647 3.27935 19.4616 3.83772C19.3766 4.08371 19.087 4.37656 18.8436 4.46246C18.3107 4.64598 17.8318 4.4117 17.0709 3.58782C16.1749 2.61166 15.7655 2.24463 15.4526 2.12358C15.3213 2.07282 15.2055 2.06111 14.9969 2.07282C14.5219 2.10406 14.3674 2.20168 13.564 2.99432C13.1894 3.36526 13.1894 3.36526 13.2744 3.42773C13.3246 3.45897 13.4366 3.55658 13.5254 3.63858L13.6876 3.79086L14.209 3.30278C14.6184 2.92013 14.7652 2.80689 14.9042 2.76785C15.2209 2.67804 15.2788 2.71709 16.2405 3.70496C17.1713 4.65378 17.3915 4.84121 17.7893 5.03253C18.3029 5.27462 18.7432 5.27462 19.2453 5.02472C20.3074 4.50931 20.5314 3.00213 19.6817 2.1392C19.2955 1.74874 18.7857 1.57694 18.2141 1.64331Z" class="dynamic-path"/>
<path d="M8.53929 2.12733C8.37322 2.1859 8.20328 2.31085 7.94452 2.54903L7.77844 2.70131L8.00245 2.93169C8.12218 3.05664 8.23804 3.15816 8.25349 3.15816C8.26894 3.15816 8.37708 3.07225 8.49681 2.96683C8.74399 2.74427 8.86758 2.70522 9.09159 2.76769C9.26925 2.81455 9.40056 2.91607 9.83313 3.34558L10.1305 3.63452L10.3816 3.4471C10.5245 3.34167 10.6365 3.24406 10.6403 3.23234C10.6403 3.18939 9.93741 2.49437 9.73271 2.33818C9.62843 2.25619 9.45463 2.16248 9.35421 2.12733C9.13021 2.04924 8.74399 2.04924 8.53929 2.12733Z" class="dynamic-path"/>
<path d="M11.3587 3.18164C10.8836 3.29878 10.2966 3.71267 9.97214 4.1656C9.89876 4.26712 9.50482 5.009 9.09542 5.81336C8.68603 6.61771 8.25733 7.4533 8.14146 7.66415C8.02946 7.875 7.93677 8.08195 7.93677 8.1249C7.93677 8.23423 8.06808 8.47241 8.20326 8.60127C8.26892 8.66374 8.33071 8.71059 8.33844 8.69888C8.36161 8.67545 9.3426 6.7778 9.91421 5.64546C10.4742 4.54826 10.6364 4.31398 11.0342 4.05237C11.3239 3.86495 11.687 3.76343 11.9805 3.79466C12.5212 3.85323 13.1314 4.34522 13.4404 4.97386C13.5254 5.14567 13.5987 5.29404 13.6026 5.29795C13.618 5.33309 14.1935 5.08319 14.1935 5.04024C14.1935 4.96605 14.012 4.61464 13.8227 4.32179C13.5949 3.97428 13.1082 3.52134 12.7993 3.36516C12.3281 3.12307 11.8453 3.0645 11.3587 3.18164Z" class="dynamic-path"/>
<path d="M15.0626 4.18125C14.5489 4.68495 14.3867 4.86846 14.3944 4.93094C14.4022 4.9856 14.4292 5.00903 14.4833 5.00122C14.5257 4.99732 14.7189 4.9817 14.9081 4.96998L15.2557 4.94656L15.7307 4.4741C15.9895 4.21249 16.2019 3.98602 16.2019 3.96649C16.2019 3.92354 15.8157 3.50965 15.7732 3.50965C15.7578 3.50965 15.4372 3.81031 15.0626 4.18125Z" class="dynamic-path"/>
<path d="M11.5711 4.54042C11.3471 4.62242 11.1617 4.81765 10.9918 5.14954C10.903 5.32135 10.8334 5.48144 10.8412 5.49705C10.8489 5.51658 10.9686 5.61029 11.1077 5.7079L11.3626 5.88361L11.5209 5.55562C11.7951 5.00117 11.9071 5.01678 12.2277 5.66495C12.332 5.8758 12.4285 6.04761 12.4401 6.04761C12.4517 6.04761 12.5714 5.96561 12.7105 5.86799C13.004 5.65714 13.004 5.68838 12.7143 5.15735C12.5058 4.77079 12.3281 4.58728 12.1002 4.5209C11.9342 4.47404 11.7333 4.48185 11.5711 4.54042Z" class="dynamic-path"/>
<path d="M8.30372 5.18865C7.02534 5.37998 6.17952 6.33271 6.05979 7.72666C6.00572 8.35921 6.23359 9.16357 6.59664 9.62041L6.68933 9.73364L6.87085 9.4486L7.05237 9.16357L6.94037 8.941C6.51167 8.12884 6.67002 7.00821 7.29569 6.37566C7.64715 6.02034 8.14537 5.81339 8.63973 5.81339H8.86374L9.01436 5.50493L9.16885 5.19646L9.04912 5.17303C8.90236 5.1418 8.55863 5.14961 8.30372 5.18865Z" class="dynamic-path"/>
<path d="M14.4137 5.25115C14.0854 5.32924 13.6412 5.52447 13.2473 5.76265C12.8842 5.98131 12.2045 6.51234 12.2045 6.57872C12.2045 6.60215 12.2933 6.72319 12.4015 6.84814L12.6023 7.07461L12.8263 6.87157C13.4906 6.27025 14.4484 5.81341 15.0471 5.81341C15.7307 5.81341 16.422 6.2273 16.7387 6.82471C16.9743 7.27765 17.067 7.88287 16.9743 8.39437C16.9125 8.74189 16.6499 9.22606 16.3795 9.49938C15.6032 10.2842 14.5102 10.2491 13.2743 9.39786C13.0735 9.2612 12.6293 8.8395 11.8955 8.09372C10.818 7.00042 10.4935 6.71929 10.0146 6.47329L9.79062 6.36006L9.65544 6.63338C9.58206 6.78176 9.52026 6.91061 9.52026 6.92233C9.52026 6.93014 9.62068 6.99652 9.74427 7.06289C10.1923 7.3167 10.5669 7.64468 11.5479 8.64817C12.6409 9.7649 12.9731 10.0382 13.591 10.3467C14.796 10.9402 15.9315 10.8231 16.7657 10.0226C17.2331 9.57357 17.4918 9.0933 17.6115 8.46075C17.6849 8.06638 17.6849 7.86334 17.6115 7.43383C17.4995 6.78957 17.2176 6.24683 16.7812 5.83684C16.5224 5.59866 16.0474 5.34095 15.6805 5.24724C15.3947 5.17305 14.7188 5.17696 14.4137 5.25115Z" class="dynamic-path"/>
<path d="M10.2039 5.55182C10.1228 5.68067 9.98376 5.96181 9.98376 6.00085C9.98376 6.02038 10.1267 6.1219 10.3043 6.22342C10.93 6.59436 11.1772 6.81302 12.2972 7.99221C13.2628 9.01913 13.7957 9.4096 14.4639 9.59702C14.9042 9.72197 15.6226 9.69073 15.6226 9.55016C15.6226 9.52283 15.553 9.39398 15.4681 9.25731C15.3136 9.01132 15.3097 9.00742 15.163 9.03475C14.966 9.06989 14.5605 8.96837 14.2438 8.80438C13.7262 8.54277 13.4404 8.28897 12.3822 7.14881C11.6213 6.32884 11.0884 5.88371 10.4974 5.58696L10.2618 5.46592L10.2039 5.55182Z" class="dynamic-path"/>
<path d="M8.31139 6.22721C7.53895 6.41463 7.08321 7.03157 7.07163 7.9023C7.0639 8.73008 7.54281 9.40558 8.32297 9.65938C9.01817 9.88976 10.0803 9.51491 10.9647 8.73008L11.1578 8.55828L10.9493 8.32009L10.7446 8.08191L10.6441 8.16C10.5901 8.20296 10.424 8.33181 10.2734 8.44895C9.9142 8.73399 9.44687 8.96436 9.07224 9.04245C8.7903 9.10102 8.75168 9.10102 8.55084 9.04245C8.1569 8.92531 7.84406 8.60513 7.73978 8.21467C7.62392 7.78906 7.8093 7.2268 8.13373 7.00814C8.2998 6.89881 8.43498 6.68796 8.66285 6.19207C8.68216 6.15302 8.57015 6.16083 8.31139 6.22721Z" class="dynamic-path"/>
<path d="M14.4755 6.29766C14.0043 6.45385 13.4095 6.81698 12.9422 7.24258L12.8302 7.3441L13.0542 7.57057L13.2821 7.80094L13.4173 7.6838C14.3171 6.9224 15.0432 6.68422 15.5299 6.98878C15.8002 7.15668 16.0088 7.57057 16.0088 7.93761C16.0088 8.05474 16.059 8.17579 16.2096 8.4374C16.3216 8.62482 16.422 8.78101 16.4375 8.78101C16.4838 8.78101 16.5881 8.46864 16.6229 8.21483C16.6885 7.75799 16.5572 7.18792 16.3062 6.8365C15.9122 6.28204 15.1861 6.06729 14.4755 6.29766Z" class="dynamic-path"/>
<path d="M4.26775 7.01988C3.90084 7.13311 3.5571 7.4611 3.42193 7.81642C3.36399 7.97651 3.34082 8.12879 3.34082 8.34745C3.34082 8.60906 3.35627 8.68325 3.45669 8.8902C3.59572 9.17133 3.81201 9.37827 4.1094 9.51494C4.28319 9.60084 4.38361 9.61646 4.63852 9.62036C4.92818 9.62036 4.97066 9.60865 5.27578 9.45637C5.45344 9.36656 5.70448 9.21038 5.82807 9.10885L6.05594 8.92534L5.81262 8.69496C5.58089 8.4763 5.56544 8.4685 5.4882 8.52706C4.84321 9.01124 4.54196 9.07762 4.24071 8.8082C4.06691 8.65592 3.99739 8.51145 3.99739 8.31231C3.99739 7.97651 4.23685 7.69538 4.55355 7.66024C4.87025 7.62119 5.14446 7.76957 5.6311 8.23031C5.78172 8.37088 5.89373 8.45678 5.87828 8.41774C5.86283 8.37869 5.85124 8.15222 5.85124 7.91794V7.49234L5.55772 7.29711C5.3955 7.18778 5.17536 7.07454 5.06722 7.0433C4.86252 6.98083 4.43382 6.96912 4.26775 7.01988Z" class="dynamic-path"/>
<path d="M18.9053 7.06296C18.6852 7.14495 18.3801 7.33238 18.102 7.56275L17.9321 7.69941L18.1561 7.92588C18.2797 8.05473 18.3917 8.15625 18.4071 8.15625C18.4187 8.15625 18.5191 8.08597 18.6273 8.00007C18.8667 7.80484 19.195 7.64865 19.3611 7.64865C19.6585 7.64865 19.9636 7.91417 20.0061 8.21482C20.0717 8.65214 19.6276 9.06603 19.2259 8.94499C18.9671 8.8669 18.5964 8.61309 18.2488 8.2812C18.0595 8.10549 17.8973 7.96102 17.8857 7.96102C17.8741 7.96102 17.8626 8.03521 17.8626 8.12892C17.8626 8.22263 17.8432 8.40224 17.8201 8.5311L17.7776 8.76147L17.9977 8.96061C18.3067 9.23784 18.7624 9.50726 19.0598 9.58535C19.6739 9.74153 20.2919 9.44869 20.5622 8.86299C20.6472 8.67947 20.6626 8.58967 20.6626 8.31244C20.6626 8.01569 20.6472 7.94931 20.5352 7.71893C20.2339 7.0981 19.5581 6.82868 18.9053 7.06296Z" class="dynamic-path"/>
<path d="M3.4644 7.14106C2.97004 7.37924 2.58769 7.89856 2.49113 8.46083C2.4641 8.64044 2.45251 9.51117 2.46023 11.2214C2.47182 13.572 2.47568 13.7282 2.5452 13.857C2.64562 14.0484 2.831 14.2397 3.01253 14.3373C3.15929 14.4154 3.23653 14.4232 4.94362 14.4505C8.11834 14.5013 8.75174 14.5872 9.67094 15.0714L10.0301 15.2627L10.2966 15.0597C10.4434 14.9503 10.5631 14.8488 10.5631 14.8371C10.5631 14.7941 10.119 14.5247 9.79067 14.3724C8.84443 13.9273 8.13379 13.8414 5.09811 13.7946C4.13642 13.7789 3.32923 13.7516 3.29061 13.7321C3.11294 13.6384 3.10908 13.5876 3.10908 10.8387C3.10908 9.26518 3.12453 8.16408 3.1477 8.03522C3.20564 7.73066 3.39102 7.37144 3.59186 7.18401C3.68455 7.09811 3.75021 7.02392 3.73476 7.02392C3.71931 7.02392 3.59958 7.07468 3.4644 7.14106Z" class="dynamic-path"/>
<path d="M14.7459 7.10968C14.6763 7.1331 14.6184 7.16825 14.6184 7.19167C14.6184 7.35176 15.8504 9.60083 15.9393 9.60083C15.9547 9.60083 16.0667 9.50712 16.1865 9.39388L16.4105 9.18303L16.0551 8.57391C15.8582 8.24202 15.6071 7.77737 15.499 7.54309C15.3908 7.31272 15.2827 7.10968 15.2595 7.09406C15.1977 7.05111 14.8926 7.06282 14.7459 7.10968Z" class="dynamic-path"/>
<path d="M11.3162 8.89793C11.1926 9.03459 10.5824 9.47972 10.2734 9.65933C10.115 9.74914 9.81378 9.88189 9.60522 9.95608C9.27693 10.0693 9.18038 10.0849 8.82506 10.0849C8.49291 10.0849 8.37705 10.0693 8.1878 9.99513C8.06035 9.94827 7.92903 9.89751 7.89813 9.8897C7.85951 9.87799 7.79385 9.95608 7.6973 10.124C7.61619 10.2645 7.55054 10.3856 7.55054 10.3973C7.55054 10.4364 7.83248 10.5652 8.11055 10.655C8.4736 10.7721 9.09927 10.7761 9.52798 10.6628C10.2579 10.4637 11.0342 10.0225 11.6831 9.42896L11.8492 9.28058L11.6174 9.0463L11.3896 8.81593L11.3162 8.89793Z" class="dynamic-path"/>
<path d="M21.3695 9.25737C21.2884 9.35889 21.1455 9.49946 21.0528 9.56974L20.879 9.6986L20.8751 11.6236V13.5525L20.7631 13.6657L20.6511 13.7789H19.8439C18.6466 13.7828 16.4683 13.8492 16.0281 13.8961C15.526 13.9507 14.9157 14.0913 14.4909 14.2475C14.1588 14.3724 13.4945 14.7434 13.4713 14.8215C13.4597 14.8566 13.9193 15.2627 13.9734 15.2627C13.985 15.2627 14.0815 15.208 14.1819 15.1456C14.6106 14.8761 15.2093 14.6887 15.9701 14.5794C16.4259 14.513 18.4149 14.4466 19.9327 14.4427C20.8365 14.4427 20.9871 14.4076 21.242 14.1499C21.5433 13.8453 21.5355 13.9351 21.5239 11.3581L21.5124 9.06995L21.3695 9.25737Z" class="dynamic-path"/>
<path d="M6.96739 9.69058C6.52324 10.4051 6.43055 10.6238 6.35331 11.0923C6.21813 11.9514 6.80132 12.7752 7.6819 12.9588C7.95998 13.0173 8.25736 12.9822 8.58565 12.8572C9.26539 12.5995 9.74817 12.0295 10.2773 10.8581C10.3816 10.6277 10.3932 10.573 10.3391 10.5965C10.3043 10.6121 10.1035 10.6863 9.89493 10.7644L9.51644 10.901L9.35423 11.2173C9.15339 11.6117 8.75945 12.0412 8.46592 12.1934C8.35006 12.252 8.15695 12.3106 8.03722 12.3223C7.84797 12.3418 7.79004 12.3301 7.56989 12.2208C7.27251 12.0724 7.10643 11.8811 7.02533 11.5999C6.91332 11.2173 7.01374 10.8815 7.46175 10.1279L7.75142 9.63591L7.52741 9.42506C7.39996 9.30792 7.29182 9.21421 7.28023 9.21031C7.26864 9.21031 7.12961 9.42506 6.96739 9.69058Z" class="dynamic-path"/>
<path d="M11.8261 9.57348L11.6793 9.70233L11.66 11.5141C11.6484 12.5137 11.6561 13.3454 11.6716 13.3688C11.6909 13.3883 11.7681 13.4664 11.8454 13.5406L11.9883 13.6733L12.1621 13.525L12.3397 13.3805V11.5531V9.72576L12.1698 9.58519C12.0771 9.5071 11.9921 9.44462 11.9844 9.44462C11.9767 9.44853 11.9072 9.50319 11.8261 9.57348Z" class="dynamic-path"/>
<path d="M16.7619 10.3076C16.6344 10.413 16.5186 10.4989 16.507 10.4989C16.4915 10.4989 16.5263 10.6082 16.5804 10.741C16.6924 11.026 16.7348 11.4399 16.6692 11.643C16.5533 11.9983 16.1169 12.3341 15.777 12.3341C15.2247 12.3341 14.657 11.8616 14.2669 11.0807C14.151 10.8425 14.097 10.7761 14.012 10.7527C13.9541 10.741 13.761 10.659 13.5872 10.577C13.4095 10.495 13.2666 10.4403 13.2666 10.4599C13.2666 10.5145 13.6026 11.2525 13.7571 11.5297C14.2051 12.3458 14.8038 12.8417 15.4796 12.9588C16.3834 13.1189 17.2949 12.4083 17.3528 11.4946C17.3605 11.3345 17.3489 11.0924 17.3219 10.9597C17.2794 10.7254 17.0709 10.1631 17.0206 10.1319C17.0052 10.1241 16.8893 10.2022 16.7619 10.3076Z" class="dynamic-path"/>
<path d="M4.70417 10.7293C4.1287 10.9284 3.81973 11.3931 3.85062 12.0139C3.86607 12.3771 3.97421 12.623 4.22139 12.8729C4.47244 13.1306 4.68486 13.2126 5.0788 13.2126C5.37619 13.2126 5.43412 13.197 5.69675 13.0721C5.95938 12.9432 6.43443 12.6191 6.49236 12.5254C6.50395 12.502 6.46919 12.42 6.41898 12.338C6.36491 12.2521 6.29153 12.1233 6.26063 12.0452L6.2027 11.9007L5.94007 12.1193C5.61951 12.3849 5.27191 12.5684 5.0788 12.5684C4.99383 12.5684 4.88183 12.5332 4.80458 12.4786C4.39519 12.2013 4.39519 11.6859 4.80458 11.4087C5.04018 11.2486 5.3337 11.3111 5.76241 11.6117C5.98641 11.7718 6.02117 11.7836 6.07911 11.7328C6.12931 11.6859 6.13704 11.6157 6.12931 11.3579L6.11387 11.0417L5.93621 10.9284C5.70447 10.7801 5.31439 10.6551 5.08266 10.6551C4.98611 10.659 4.81617 10.6903 4.70417 10.7293Z" class="dynamic-path"/>
<path d="M18.5848 10.6943C18.3995 10.7411 18.0944 10.9012 17.8163 11.0925C17.5266 11.2878 17.5227 11.3659 17.7892 11.6079L17.9862 11.7876L18.2141 11.6275C18.6698 11.319 18.9131 11.2565 19.1758 11.3893C19.3341 11.4674 19.4732 11.6626 19.5079 11.8539C19.5658 12.1624 19.3032 12.5138 18.9827 12.5568C18.7509 12.588 18.357 12.3772 17.9128 11.9867L17.5575 11.6704L17.515 11.8383C17.488 11.9281 17.4301 12.0765 17.3798 12.1663L17.291 12.3303L17.5227 12.5333C18.2643 13.1854 18.8591 13.365 19.4384 13.1151C19.674 13.0136 19.9559 12.7208 20.0757 12.4592C20.207 12.1741 20.1954 11.686 20.0525 11.3932C19.9289 11.1355 19.6663 10.8778 19.4229 10.7685C19.226 10.6786 18.7973 10.6396 18.5848 10.6943Z" class="dynamic-path"/>
<path d="M7.68578 10.9674C7.5815 11.1705 7.55832 11.4243 7.63171 11.5609C7.72054 11.7288 7.97158 11.7718 8.19945 11.6585C8.28055 11.6195 8.67063 11.0806 8.67063 11.0065C8.67063 10.9908 8.57794 10.9635 8.4698 10.9479C8.3578 10.9323 8.16083 10.8854 8.03337 10.8464C7.90592 10.8073 7.79778 10.7722 7.79392 10.7722C7.78619 10.7722 7.73985 10.8581 7.68578 10.9674Z" class="dynamic-path"/>
<path d="M15.7578 10.8388C15.6728 10.87 15.4681 10.9051 15.302 10.9168L15.0046 10.9403L15.1244 11.1589C15.4527 11.7485 15.7694 11.8969 16.0281 11.5845C16.171 11.4127 16.1517 11.1902 15.9625 10.8661C15.9161 10.788 15.9045 10.7841 15.7578 10.8388Z" class="dynamic-path"/>
<path d="M9.52029 12.459C9.32331 12.6776 9.31173 12.6972 9.38125 12.7401C9.74043 12.951 10.3236 13.3805 10.7639 13.7553C11.0574 14.0052 11.3085 14.2083 11.3201 14.2083C11.3317 14.2083 11.4552 14.1184 11.5943 14.0091C11.799 13.8412 11.8337 13.7983 11.7913 13.7553C11.3432 13.3141 9.89492 12.2091 9.77905 12.2208C9.75202 12.2247 9.63615 12.3301 9.52029 12.459Z" class="dynamic-path"/>
<path d="M13.5834 12.6231C13.3748 12.7792 13.089 13.0057 12.9538 13.1228C12.1196 13.8374 11.1965 14.6027 10.6751 15.0166C9.79841 15.7077 9.55509 16.0123 9.43922 16.555C9.19977 17.6796 10.1924 18.7728 11.6329 18.9759C12.3629 19.0774 13.2164 18.847 13.8267 18.3746C14.7961 17.6288 14.8501 16.3012 13.9464 15.5164C13.6297 15.2392 12.7182 14.5207 12.6835 14.5207C12.668 14.5207 12.5483 14.6105 12.4208 14.7198C12.22 14.8877 12.1891 14.9307 12.2316 14.9775C12.2586 15.0088 12.5135 15.2235 12.8032 15.45C13.7147 16.1685 13.8807 16.3676 13.9116 16.801C13.9541 17.3125 13.6722 17.742 13.0929 18.0388C12.6989 18.2418 12.4981 18.2887 11.9921 18.2887C11.436 18.2887 11.1193 18.1989 10.706 17.9177C10.0456 17.4726 9.88338 16.7893 10.3044 16.2309C10.3739 16.1411 10.7176 15.8366 11.0652 15.5593C11.4167 15.2821 12.1157 14.7042 12.6217 14.2786C13.4289 13.5953 14.1395 13.0291 14.4214 12.8417L14.5141 12.7792L14.2863 12.5567C14.1588 12.4356 14.0391 12.3341 14.0121 12.3341C13.9889 12.3341 13.7958 12.463 13.5834 12.6231Z" class="dynamic-path"/>
<path d="M10.9107 16.145C10.6095 16.2778 10.4473 16.5394 10.4473 16.8908C10.4473 17.172 10.5554 17.3789 10.7871 17.5429C10.9262 17.6444 10.9918 17.6639 11.1734 17.66C11.4283 17.66 11.5557 17.6015 11.8261 17.3555L12.0192 17.1798L12.1852 17.3516C12.3938 17.5663 12.6835 17.6991 12.8882 17.6717C13.1392 17.6366 13.3632 17.4765 13.4752 17.2461C13.6065 16.9845 13.6027 16.7815 13.4752 16.516C13.3439 16.2544 13.1431 16.1138 12.8689 16.0904C12.6101 16.0708 12.4556 16.1333 12.193 16.3754L11.9883 16.5628L11.8068 16.3832C11.5132 16.0943 11.212 16.0123 10.9107 16.145ZM11.5325 16.6995L11.7334 16.8869L11.5132 17.0704C11.2738 17.2657 11.1618 17.293 11.0073 17.1915C10.7138 16.9962 10.8567 16.5121 11.2081 16.5121C11.3008 16.5121 11.3781 16.5589 11.5325 16.6995ZM13.0504 16.6331C13.1894 16.801 13.1856 16.9884 13.0388 17.1407C12.8611 17.3164 12.7221 17.2891 12.4286 17.008C12.359 16.9416 12.3011 16.8752 12.3011 16.8596C12.3011 16.844 12.3899 16.7581 12.4981 16.6722C12.753 16.4691 12.9036 16.4574 13.0504 16.6331Z" class="dynamic-path"/>
</g>
<defs>
<clipPath id="clip0_1_551">
<rect width="24" height="19" fill="white"/>
</clipPath>
</defs>
</svg>
